# xmcd CD database file generated by Grip 3.3.1
# 
# Track frame offsets:
#       150
#       101195
#       169024
#       214318
#       272542
# 
# Disc length: 4719 seconds
# 
# Revision: 1
# Processed by: cddbd v1.5.2PL0 Copyright (c) Steve Scherf et al.
# Submitted via: Grip 3.3.1
# 
DISCID=44126d05
DTITLE=Royal Concertgebouw Orchestra Amsterdam, Bernard Haitink (dir.) /
DTITLE=Radio Legacy RCO 1960-1970 CD061
DYEAR=1900
DGENRE=Classical
TTITLE0=I. Langsam. Adagio - Allegro - Symphony No.7 in E minor (1904-190
TTITLE0=5) - Gustav Mahler
TTITLE1=II. Nachtmusik I: Allegro moderato - Symphony No.7 in E minor (19
TTITLE1=04-1905) - Gustav Mahler
TTITLE2=III. Scherzo - Symphony No.7 in E minor (1904-1905) - Gustav Mahl
TTITLE2=er
TTITLE3=IV. Nachtmusik II: Andante amoroso - Symphony No.7 in E minor (19
TTITLE3=04-1905) - Gustav Mahler
TTITLE4=V. Rondo - Finale - Symphony No.7 in E minor (1904-1905) - Gustav
TTITLE4=Mahler
EXTD=
EXTT0=
EXTT1=
EXTT2=
EXTT3=
EXTT4=
PLAYORDER=
